<svg xmlns="http://www.w3.org/2000/svg" width="13.757" height="8.082" viewBox="0 0 13.757 8.082"><defs><style>.a{fill:#696969;}</style></defs><g transform="translate(13.757 8.082) rotate(180)"><path class="a" d="M70.871,62.359a.8.8,0,0,0-1.2-.064L65.777,66.32l-.033.034-1.454,1.5-3.193-3.3-.033-.035-2.152-2.226a.8.8,0,0,0-1.2.064.866.866,0,0,0-.062,1.245L59.8,65.83l.033.034,3.761,3.891c.02.024.04.047.062.07s.05.05.076.072a.76.76,0,0,0,.552.235H64.3a.76.76,0,0,0,.552-.235q.038-.034.076-.072c.022-.023.043-.047.062-.07l2.022-2.092.033-.035L70.933,63.6A.866.866,0,0,0,70.871,62.359Z" transform="translate(-57.411 -62.051)"/></g></svg>