<svg xmlns="http://www.w3.org/2000/svg" width="20" height="20" viewBox="0 0 20 20"><defs><style>.a{fill:#4573e3;}.b{fill:#fff;}</style></defs><g transform="translate(-1107 -303)"><circle class="a" cx="10" cy="10" r="10" transform="translate(1107 303)"/><path class="b" d="M136.183,504.785h0l6-9.961a.14.14,0,0,0-.036-.184l-2.59-1.819a.118.118,0,0,0-.171.039l-5.964,9.895c-.03.047-.055.09-.067.111l-.3,3.236a.3.3,0,0,0,.4.283l2.694-1.554Zm3.4-10.9a.118.118,0,0,1,.171-.039l1.493,1.049a.14.14,0,0,1,.036.184L136,503.844a.118.118,0,0,1-.171.039l-1.493-1.049a.14.14,0,0,1-.036-.184Z" transform="translate(979.64 -186.798)"/></g></svg>