<svg xmlns="http://www.w3.org/2000/svg" width="65.113" height="68.982" viewBox="0 0 65.113 68.982" fill="#232323"><g transform="matrix(0.996, -0.087, 0.087, 0.996, -2.75, 4.652)"><path d="M11.658,35.2H11.6v.141L1.132,60.3,47.194,40.985,20.449,14.24Zm15.9,11.13L22.24,48.565V19.792l5.321,5.321Zm2.66-18.56,5.321,5.321v9.893l-5.321,2.231ZM19.579,49.681l-5.321,2.231V35.881l5.321-12.689ZM11.6,42.225v10.8L6.1,55.333Zm26.6-.354V35.755l4.31,4.31Z" transform="translate(0 4.372)"/><path d="M28.321,9a5.321,5.321,0,1,0,5.321,5.321A5.326,5.326,0,0,0,28.321,9Zm0,7.981a2.66,2.66,0,1,1,2.66-2.66A2.663,2.663,0,0,1,28.321,16.981Z" transform="translate(7.221 2.642)"/><path d="M46.321,1a5.321,5.321,0,1,0,5.321,5.321A5.326,5.326,0,0,0,46.321,1Zm0,7.981a2.66,2.66,0,1,1,2.66-2.66A2.663,2.663,0,0,1,46.321,8.981Z" transform="translate(13.165)"/><path d="M41.321,17a5.321,5.321,0,1,0,5.321,5.321A5.326,5.326,0,0,0,41.321,17Zm0,7.981a2.66,2.66,0,1,1,2.66-2.66A2.663,2.663,0,0,1,41.321,24.981Z" transform="translate(11.514 5.283)"/><path d="M35.808,31.555l1.881,1.881a9.485,9.485,0,0,1,13.4,0l1.881-1.881A12.145,12.145,0,0,0,35.808,31.555Z" transform="translate(11.45 8.918)"/><path d="M19.174,17.976a9.322,9.322,0,0,0,0-13.168L17.293,6.689a6.66,6.66,0,0,1,0,9.406Z" transform="translate(5.336 1.257)"/><path d="M36.174,18.895a12.634,12.634,0,0,0,0-17.845L34.293,2.931a9.971,9.971,0,0,1,0,14.083Z" transform="translate(10.95 0.017)"/><rect width="2.66" height="2.66" transform="translate(36.872 26.274)"/><rect width="2.66" height="2.66" transform="translate(58.155 15.632)"/><rect width="2.66" height="2.66" transform="translate(31.551 3.66)"/></g></svg>